<svg xmlns="http://www.w3.org/2000/svg" xmlns:xlink="http://www.w3.org/1999/xlink" width="525.69" height="324.68" viewBox="0 0 525.69 324.68"><defs><clipPath id="a"><polygon points="365.97 0 0 229.56 238.46 319.39 525.69 245.09 365.97 0" fill="none"/></clipPath><linearGradient id="b" x1="-375.28" y1="576.46" x2="-374.28" y2="576.46" gradientTransform="matrix(525.69, 0, 0, -525.69, 197283.62, 303199.36)" gradientUnits="userSpaceOnUse"><stop offset="0" stop-color="#f0f"/><stop offset="0.1" stop-color="#ed00ff"/><stop offset="0.31" stop-color="#be00ff"/><stop offset="0.6" stop-color="#7300ff"/><stop offset="0.96" stop-color="#0c00ff"/><stop offset="1" stop-color="blue"/></linearGradient><clipPath id="c"><path d="M481.42,247.19l-4.35-16.82,8.92,13,3.66-.94,1.52-15.68,4.35,16.82,5.06-1.31L493.53,215l-5.69,1.47-2,18.67L475,219.77l-5.69,1.47,7.05,27.25Zm-30.95,8,5.06-1.31-3.36-13,13.25,10.44,6.42-1.66-15.73-12,7.91-15-6.23,1.61-6.69,12.53-2.62-10.12-5.06,1.31Zm-20.29-18.85-6.56,23.3.61,2.34,19.27-5-1.21-4.67-12.22,3.16,6.44-23.26-.6-2.34-18.07,4.67,1.21,4.67Z" fill="none"/></clipPath><linearGradient id="d" x1="-370.59" y1="577.74" x2="-369.59" y2="577.74" gradientTransform="matrix(78.86, 0, 0, -78.86, 29644.38, 45800.02)" gradientUnits="userSpaceOnUse"><stop offset="0" stop-color="#ff0"/><stop offset="1" stop-color="aqua"/></linearGradient><clipPath id="e"><path d="M338.68,56A7.91,7.91,0,0,1,335,52.47a7.72,7.72,0,0,1-1.33-4.9,4.6,4.6,0,0,1,6.22-3.74,7.56,7.56,0,0,1,3.73,3.45,7.58,7.58,0,0,1,1.3,4.92,4.53,4.53,0,0,1-2.2,3.39,4.6,4.6,0,0,1-2.36.69,4.83,4.83,0,0,1-1.64-.3M320.63,38.1l15.75,26.21L341,61.55l-1.16-1.92a6.33,6.33,0,0,0,5.86-.5c5.48-3.29,6.26-8.85,2.73-14.74s-8.82-7.8-14.3-4.51a7.2,7.2,0,0,0-3.32,4.71l-5.56-9.25Zm38.45-12.83,3,14.15-11.36-9.1-4.63,2.78,17.28,13.41,2,10.67,4.44-2.67-6.13-32Z" fill="none"/></clipPath><linearGradient id="f" x1="-365.95" y1="576.65" x2="-364.95" y2="576.65" gradientTransform="matrix(44.92, 0, 0, -44.92, 16766.52, 25948.54)" xlink:href="#d"/><clipPath id="g"><path d="M206.29,278.85a4.78,4.78,0,0,1,5.86-2.26q3.53,1.31,2.94,5.51Zm-6.25.37c-1.8,4.86-1.09,11.56,5.92,14.15q6.67,2.46,11.48-2.53l-3.5-3a5.92,5.92,0,0,1-6.11,1.34,5,5,0,0,1-3.12-6.4L218.77,288l.76-2.07a12,12,0,0,0,.28-7.49,9.28,9.28,0,0,0-6.08-6.11,11.25,11.25,0,0,0-3.9-.74c-4.92,0-8.35,3.75-9.79,7.66m-18.11.41a4.51,4.51,0,0,1-2.79-2.92,9.07,9.07,0,0,1,3.38-9.16,4.52,4.52,0,0,1,4-.41,4.39,4.39,0,0,1,2.75,2.91,7.48,7.48,0,0,1-.36,5.07,7.61,7.61,0,0,1-3,4.13,4.34,4.34,0,0,1-2.31.69,4.9,4.9,0,0,1-1.65-.31m9.64-13a7.22,7.22,0,0,0-4.14-4c-6-2.21-10.83.66-13.21,7.1s-.56,11.76,5.44,14a6.29,6.29,0,0,0,5.84-.61l-.78,2.11,5,1.85,10.58-28.69-5-1.86Zm-43.28-1.51c-1.48,4,.24,7.09,4,8.48A8,8,0,0,0,160,272.3l-1.22,3.28,5,1.86L171.3,257l-5-1.85-3,8.14c-1.89,5.15-5.13,7.55-7.72,6.59-2-.71-2.5-2.21-1.68-4.44l4.83-13.09-5-1.85Zm-33.19-5.62,5,1.86,7.54-20.43-5-1.85Zm23.52-20.33-1.88,5.11-3.17-1.17-1.58,4.3,3.16,1.17-3.29,8.91c-1.84,5,0,8.57,4.72,10.31a8.31,8.31,0,0,0,3.59.49l.32-4.48a4.24,4.24,0,0,1-2.12-.24c-1.79-.65-2.35-1.87-1.45-4.31l3.26-8.83,5.39,2,1.58-4.3-5.39-2,3.05-8.26ZM125.86,231a3.48,3.48,0,1,0,1.42-.32,3.27,3.27,0,0,0-1.42.32m-38.8,13.68A4.81,4.81,0,0,1,84,241.47a7.58,7.58,0,0,1,.27-5,7.39,7.39,0,0,1,3-3.91,5,5,0,0,1,7.46,2.75,7.4,7.4,0,0,1-.25,4.93,7.58,7.58,0,0,1-3,3.95,4.84,4.84,0,0,1-2.56.75,5.31,5.31,0,0,1-1.83-.34m-2.49-16.58A11.28,11.28,0,0,0,79,234.56a11.39,11.39,0,0,0,0,8.61,10.49,10.49,0,0,0,6.49,5.75,10.48,10.48,0,0,0,8.66-.16,12.37,12.37,0,0,0,5.58-15.12,10.54,10.54,0,0,0-6.47-5.79,12.36,12.36,0,0,0-4.32-.83,9.55,9.55,0,0,0-4.36,1m18.17,26.87,5,1.86,10.59-28.7-5-1.85ZM64.19,210.64A8,8,0,0,0,60,215.3c-2,5.2,1.57,9,4.41,11.62,2,1.9,3.37,3.87,2.75,5.53-.91,2.47-2.57,3.24-5.05,2.32-2.67-1-3.83-3.57-3.51-7.83l-5.24,1.11A10.66,10.66,0,0,0,54.62,235a10.3,10.3,0,0,0,5.57,4.63c5.51,2,10.3,0,12.34-5.48,1.85-4.89-1.88-8.66-4.73-11.41-1.9-1.95-3.36-4-2.7-5.79a2.74,2.74,0,0,1,3.68-1.59c1.58.58,2.54,2.09,2.82,4.45l5.26-1.15a8.91,8.91,0,0,0-6.29-8.16,8.61,8.61,0,0,0-3-.58,7.85,7.85,0,0,0-3.34.76" fill="none"/></clipPath><linearGradient id="h" x1="-374.49" y1="577.84" x2="-373.49" y2="577.84" gradientTransform="matrix(0, 175.93, 175.93, 0, -101524.81, 66051.05)" xlink:href="#d"/><clipPath id="i"><polygon points="19.73 148.52 320.1 324.68 514.86 123.75 164.06 31.07 19.73 148.52" fill="none"/></clipPath><linearGradient id="j" x1="-375.24" y1="576.49" x2="-374.24" y2="576.49" gradientTransform="matrix(495.13, 0, 0, -495.13, 185811.65, 285611.56)" xlink:href="#d"/><clipPath id="k"><rect width="525.69" height="324.68" fill="none"/></clipPath></defs><title>WebResidencies_Logo</title><g clip-path="url(#a)"><rect width="525.69" height="319.39" fill="url(#b)"/></g><g clip-path="url(#c)"><rect x="413.28" y="205.37" width="91.87" height="66.22" transform="translate(-45.08 122.57) rotate(-14.5)" fill="url(#d)"/></g><g clip-path="url(#e)"><rect x="313.38" y="12.84" width="63.67" height="61.15" transform="translate(26.95 184) rotate(-31)" fill="url(#f)"/></g><g clip-path="url(#g)"><rect x="67.82" y="159.11" width="137.87" height="186.67" transform="translate(-147.42 293.38) rotate(-69.75)" fill="url(#h)"/></g><g clip-path="url(#i)"><rect x="19.73" y="31.08" width="495.13" height="293.6" fill="url(#j)"/></g><g clip-path="url(#k)"><path d="M419.65,172.32a8.17,8.17,0,0,0-5.93,2.2,7.06,7.06,0,0,0-2.29,5.31c0,3.67,1.94,5.56,5.2,6.94,1,.41,2.76,1,3.63,1.38a8.77,8.77,0,0,1,1.43.61,2.07,2.07,0,0,1,1.38,1.94c0,1.84-1.07,2.76-3.17,2.76-2.4,0-4.13-1.43-5.16-4.24l-5.05,2.71a11.92,11.92,0,0,0,3.83,4.85,10.18,10.18,0,0,0,6.38,2.09,8.92,8.92,0,0,0,6.59-2.5,8.29,8.29,0,0,0,2.55-6.08,6.56,6.56,0,0,0-1.58-4.18,5.7,5.7,0,0,0-1.84-1.33,16.81,16.81,0,0,0-1.84-1l-2.19-.77-1.84-.66c-1.64-.61-2.45-1.43-2.45-2.5a2.15,2.15,0,0,1,2.35-2.15,5.35,5.35,0,0,1,4.29,2.25l3.77-3.47a9.57,9.57,0,0,0-8.06-4.19m-28.19,5.41c3,0,4.8,1.64,5.52,4.9H385.9a5.63,5.63,0,0,1,5.56-4.9m12,7.3a14.3,14.3,0,0,0-2.76-8.42c-1.83-2.61-5.15-4.29-9.24-4.29-8.83,0-12.36,7.15-12.36,13.28s3.53,13.27,12.36,13.27c5.62,0,9.5-2.5,11.69-7.5l-5.1-1.89c-1.53,2.65-3.63,4-6.23,4a5.92,5.92,0,0,1-6.08-5.82h17.72Zm-39.37,13.43h6.33V172.73h-6.33Zm.26-30.22a4.12,4.12,0,1,0,0-5.83,4.17,4.17,0,0,0,0,5.83m-13.63,21c-1.38,2.81-3.42,4.24-6,4.24-3.88,0-5.92-3.17-5.92-7.86s2-7.87,5.92-7.87c2.61,0,4.65,1.43,6,4.24l5.66-2.3c-2-4.9-5.87-7.35-11.69-7.35-4,0-7.1,1.28-9.29,3.78a15.42,15.42,0,0,0,0,19c2.19,2.5,5.26,3.78,9.29,3.78,5.82,0,9.7-2.45,11.69-7.35Zm-49,9.24H308V188.2c0-6.49,2.6-10.47,5.87-10.47,2.45,0,3.68,1.43,3.68,4.24v16.49h6.33V180.08c0-5.05-3.17-7.76-7.91-7.76-3.22,0-5.88,1.53-8,4.54v-4.13H301.7Zm-20.32-20.73c3,0,4.8,1.64,5.51,4.9H275.81a5.63,5.63,0,0,1,5.57-4.9m12,7.3a14.3,14.3,0,0,0-2.76-8.42c-1.84-2.61-5.16-4.29-9.24-4.29-8.84,0-12.36,7.15-12.36,13.28s3.52,13.27,12.36,13.27c5.61,0,9.49-2.5,11.69-7.5L288,189.48c-1.53,2.65-3.62,4-6.23,4a5.91,5.91,0,0,1-6.07-5.82h17.72Zm-48.56-5.2a5.31,5.31,0,0,1,4.29-2.1,5.15,5.15,0,0,1,4.23,2.1A8.76,8.76,0,0,1,255,185.6a9,9,0,0,1-1.69,5.82,5.09,5.09,0,0,1-4.23,2,5.33,5.33,0,0,1-4.29-2.09,10.69,10.69,0,0,1,0-11.54m3.42-7.51c-7.56,0-11.75,5.16-11.75,13.28s4.19,13.27,11.75,13.27c2.91,0,5.41-1.58,6.23-3.06v2.65h6.33V162.31h-6.33v12.77a8.52,8.52,0,0,0-6.23-2.76m-26.76,26.14h6.33V172.73h-6.33Zm.26-30.22a4.12,4.12,0,1,0,0-5.83,4.17,4.17,0,0,0,0,5.83m-17.11,4.08a8.13,8.13,0,0,0-5.92,2.2,7.07,7.07,0,0,0-2.3,5.31c0,3.67,1.94,5.56,5.21,6.94,1,.41,2.76,1,3.63,1.38a8.77,8.77,0,0,1,1.43.61,2.06,2.06,0,0,1,1.37,1.94c0,1.84-1.07,2.76-3.16,2.76-2.4,0-4.14-1.43-5.16-4.24l-5,2.71a11.83,11.83,0,0,0,3.83,4.85,10.16,10.16,0,0,0,6.38,2.09,8.94,8.94,0,0,0,6.59-2.5,8.29,8.29,0,0,0,2.55-6.08,6.56,6.56,0,0,0-1.58-4.18,5.7,5.7,0,0,0-1.84-1.33,16.81,16.81,0,0,0-1.84-1l-2.2-.77-1.83-.66c-1.64-.61-2.46-1.43-2.46-2.5a2.15,2.15,0,0,1,2.35-2.15,5.32,5.32,0,0,1,4.29,2.25l3.78-3.47a9.59,9.59,0,0,0-8.07-4.19m-28.18,5.41c3,0,4.8,1.64,5.51,4.9H170.88a5.64,5.64,0,0,1,5.57-4.9m12,7.3a14.3,14.3,0,0,0-2.76-8.42c-1.84-2.61-5.16-4.29-9.24-4.29-8.84,0-12.36,7.15-12.36,13.28s3.52,13.27,12.36,13.27q8.42,0,11.69-7.5L183,189.48c-1.53,2.65-3.62,4-6.22,4a5.91,5.91,0,0,1-6.08-5.82h17.72Zm-50.4-8.11v-8.07h6.43c2.81,0,4.19,1.33,4.19,4s-1.38,4-4.19,4Zm17.26-4c0-6.13-3.93-10.16-10.88-10.16h-13v35.74h6.64V183h3.47l9.6,15.42h7.41l-9.91-16c4.29-1.28,6.69-4.85,6.69-9.6" fill="blue"/><path d="M322.84,141.9a5.36,5.36,0,0,1-4.29,2.09,5.26,5.26,0,0,1-4.29-2,9.31,9.31,0,0,1-1.64-5.82,9.13,9.13,0,0,1,1.64-5.77,5.43,5.43,0,0,1,8.58,0,10.75,10.75,0,0,1,0,11.54m-3.42,7.5c7.55,0,11.74-5.15,11.74-13.27s-4.19-13.28-11.74-13.28a8.48,8.48,0,0,0-6.23,2.76V112.84h-6.34V149h6.34v-2.65c.81,1.48,3.31,3.06,6.23,3.06m-33-21.14c3,0,4.8,1.64,5.51,4.9H280.81a5.64,5.64,0,0,1,5.57-4.9m12,7.3a14.3,14.3,0,0,0-2.76-8.42,11.05,11.05,0,0,0-9.24-4.29c-8.83,0-12.36,7.15-12.36,13.28s3.53,13.27,12.36,13.27c5.62,0,9.5-2.5,11.69-7.5L293,140c-1.54,2.65-3.63,4-6.23,4a5.91,5.91,0,0,1-6.08-5.82h17.72Zm-40.75,4L250.94,117h-5.72l-6.68,22.52-6-26.3h-7L234.86,149h6.74l6.48-21,6.49,21h6.74l9.34-35.74h-7Z" fill="blue"/></g></svg>